<svg width="28" height="23" viewBox="0 0 28 23" fill="none" xmlns="http://www.w3.org/2000/svg">
<path fill-rule="evenodd" clip-rule="evenodd" d="M26.1875 0.75H15.875L15.2188 1.0313L14 2.23132L12.7812 1.0313L12.125 0.75H1.8125L0.875 1.6875V20.4375L1.8125 21.375H11.7312L13.3438 22.9687H14.6562L16.2688 21.375H26.1875L27.125 20.4375V1.6875L26.1875 0.75ZM13.0625 20.0999L12.725 19.7813L12.125 19.5H2.75V2.625H11.7312L13.1188 4.01248L13.0625 20.0999ZM25.25 19.5H15.875L15.2188 19.7813L14.9563 20.0251V3.93741L16.2688 2.625H25.25V19.5ZM10.25 6.375H4.625V8.25H10.25V6.375ZM10.25 13.875H4.625V15.75H10.25V13.875ZM4.625 10.125H10.25V12H4.625V10.125ZM23.375 6.375H17.75V8.25H23.375V6.375ZM17.75 10.125H23.375V12H17.75V10.125ZM17.75 13.875H23.375V15.75H17.75V13.875Z" fill="white"/>
</svg>
