<svg width="31" height="30" viewBox="0 0 31 30" fill="none" xmlns="http://www.w3.org/2000/svg">
<path d="M22.7917 3.37504H28.6251C29.0119 3.37504 29.3828 3.52869 29.6563 3.80218C29.9298 4.07567 30.0834 4.4466 30.0834 4.83337V28.1667C30.0834 28.5535 29.9298 28.9244 29.6563 29.1979C29.3828 29.4714 29.0119 29.625 28.6251 29.625H2.37508C1.98831 29.625 1.61737 29.4714 1.34388 29.1979C1.07039 28.9244 0.916748 28.5535 0.916748 28.1667V4.83337C0.916748 4.4466 1.07039 4.07567 1.34388 3.80218C1.61737 3.52869 1.98831 3.37504 2.37508 3.37504H8.20842V0.458374H11.1251V3.37504H19.8751V0.458374H22.7917V3.37504ZM27.1668 15.0417H3.83342V26.7084H27.1668V15.0417ZM19.8751 6.29171H11.1251V9.20837H8.20842V6.29171H3.83342V12.125H27.1668V6.29171H22.7917V9.20837H19.8751V6.29171ZM6.75008 17.9584H9.66675V20.875H6.75008V17.9584ZM14.0417 17.9584H16.9584V20.875H14.0417V17.9584ZM21.3334 17.9584H24.2501V20.875H21.3334V17.9584Z" fill="#6C6E78"/>
</svg>
