<svg width="31" height="27" viewBox="0 0 31 27" fill="none" xmlns="http://www.w3.org/2000/svg">
<path d="M0.91675 9.11626C0.915981 7.96739 1.14185 6.82966 1.58141 5.7682C2.02097 4.70674 2.6656 3.74242 3.47838 2.93046C4.29116 2.11849 5.25613 1.47482 6.31802 1.03632C7.37992 0.59782 8.51788 0.373094 9.66675 0.375012H21.3334C26.1649 0.375012 30.0834 4.30522 30.0834 9.11626V26.625H9.66675C4.83529 26.625 0.91675 22.6948 0.91675 17.8838V9.11626ZM27.1668 23.7083V9.11626C27.1629 7.57116 26.5468 6.09057 25.4534 4.99883C24.36 3.90709 22.8785 3.29322 21.3334 3.29168H9.66675C8.9009 3.28976 8.14221 3.43904 7.43418 3.73097C6.72615 4.02289 6.08272 4.45172 5.54078 4.99285C4.99883 5.53398 4.56904 6.17677 4.27606 6.88436C3.98307 7.59195 3.83265 8.35042 3.83342 9.11626V17.8838C3.83728 19.4289 4.45337 20.9095 5.54675 22.0012C6.64013 23.0929 8.12164 23.7068 9.66675 23.7083H27.1668ZM18.4167 12.0417H21.3334V14.9583H18.4167V12.0417ZM9.66675 12.0417H12.5834V14.9583H9.66675V12.0417Z" fill="#6C6E78"/>
</svg>
