<svg width="23" height="23" viewBox="0 0 23 23" fill="none" xmlns="http://www.w3.org/2000/svg">
<path d="M11.5 22.75C5.28663 22.75 0.25 17.7134 0.25 11.5C0.25 5.28663 5.28663 0.25 11.5 0.25C17.7134 0.25 22.75 5.28663 22.75 11.5C22.75 17.7134 17.7134 22.75 11.5 22.75ZM11.5 20.5C13.8869 20.5 16.1761 19.5518 17.864 17.864C19.5518 16.1761 20.5 13.8869 20.5 11.5C20.5 9.11305 19.5518 6.82387 17.864 5.13604C16.1761 3.44821 13.8869 2.5 11.5 2.5C9.11305 2.5 6.82387 3.44821 5.13604 5.13604C3.44821 6.82387 2.5 9.11305 2.5 11.5C2.5 13.8869 3.44821 16.1761 5.13604 17.864C6.82387 19.5518 9.11305 20.5 11.5 20.5ZM5.875 15.235C8.29943 15.0608 10.5794 14.0169 12.2954 12.2954C14.0169 10.5794 15.0608 8.29943 15.235 5.875C16.0663 6.42881 16.7642 7.1602 17.2786 8.01643C17.793 8.87265 18.1109 9.83235 18.2095 10.8263C18.3081 11.8203 18.1848 12.8238 17.8487 13.7643C17.5125 14.7049 16.9717 15.5591 16.2654 16.2654C15.5591 16.9717 14.7049 17.5125 13.7643 17.8487C12.8238 18.1848 11.8203 18.3081 10.8263 18.2095C9.83235 18.1109 8.87265 17.793 8.01643 17.2786C7.1602 16.7642 6.42881 16.0663 5.875 15.235Z" fill="white"/>
</svg>
