<svg width="27" height="31" viewBox="0 0 27 31" fill="none" xmlns="http://www.w3.org/2000/svg">
<path d="M20.7917 0.916626V3.83329H25.1769C25.976 3.83329 26.625 4.48225 26.625 5.28142V28.6352C26.625 29.4343 25.976 30.0833 25.1769 30.0833H1.82313C1.02396 30.0833 0.375 29.4343 0.375 28.6352V5.28142C0.375 4.48225 1.02396 3.83329 1.82313 3.83329H6.20833V0.916626H20.7917ZM6.20833 6.74996H3.29167V27.1666H23.7083V6.74996H20.7917V9.66663H6.20833V6.74996ZM9.125 21.3333V24.25H6.20833V21.3333H9.125ZM9.125 16.9583V19.875H6.20833V16.9583H9.125ZM9.125 12.5833V15.5H6.20833V12.5833H9.125ZM17.875 3.83329H9.125V6.74996H17.875V3.83329Z" fill="#6C6E78"/>
</svg>
