<svg width="31" height="30" viewBox="0 0 31 30" fill="none" xmlns="http://www.w3.org/2000/svg">
<path d="M16.9584 26.625V29.5417H14.0417V26.625H2.37508C1.98831 26.625 1.61737 26.4714 1.34388 26.1979C1.07039 25.9244 0.916748 25.5534 0.916748 25.1667V1.83334C0.916748 1.44656 1.07039 1.07563 1.34388 0.80214C1.61737 0.528649 1.98831 0.375004 2.37508 0.375004H11.1251C11.9528 0.374022 12.7712 0.549649 13.5257 0.890156C14.2801 1.23066 14.9532 1.72822 15.5001 2.34959C16.0469 1.72822 16.72 1.23066 17.4745 0.890156C18.2289 0.549649 19.0474 0.374022 19.8751 0.375004H28.6251C29.0119 0.375004 29.3828 0.528649 29.6563 0.80214C29.9298 1.07563 30.0834 1.44656 30.0834 1.83334V25.1667C30.0834 25.5534 29.9298 25.9244 29.6563 26.1979C29.3828 26.4714 29.0119 26.625 28.6251 26.625H16.9584ZM27.1668 23.7083V3.29167H19.8751C19.1015 3.29167 18.3597 3.59896 17.8127 4.14594C17.2657 4.69292 16.9584 5.43479 16.9584 6.20834V23.7083H27.1668ZM14.0417 23.7083V6.20834C14.0417 5.43479 13.7345 4.69292 13.1875 4.14594C12.6405 3.59896 11.8986 3.29167 11.1251 3.29167H3.83342V23.7083H14.0417Z" fill="#6C6E78"/>
</svg>
