<svg width="31" height="27" viewBox="0 0 31 27" fill="none" xmlns="http://www.w3.org/2000/svg">
<path d="M2.37508 0.375H28.6251C29.0119 0.375 29.3828 0.528645 29.6563 0.802136C29.9298 1.07563 30.0834 1.44656 30.0834 1.83333V25.1667C30.0834 25.5534 29.9298 25.9244 29.6563 26.1979C29.3828 26.4714 29.0119 26.625 28.6251 26.625H2.37508C1.98831 26.625 1.61737 26.4714 1.34388 26.1979C1.07039 25.9244 0.916748 25.5534 0.916748 25.1667V1.83333C0.916748 1.44656 1.07039 1.07563 1.34388 0.802136C1.61737 0.528645 1.98831 0.375 2.37508 0.375ZM27.1668 16.4167H22.1851C21.6177 17.7177 20.6829 18.8249 19.4955 19.6025C18.308 20.3801 16.9195 20.7942 15.5001 20.7942C14.0807 20.7942 12.6921 20.3801 11.5047 19.6025C10.3173 18.8249 9.38251 17.7177 8.81508 16.4167H3.83342V23.7083H27.1668V16.4167ZM27.1668 13.5V3.29167H3.83342V13.5H11.1251C11.1251 14.6603 11.586 15.7731 12.4065 16.5936C13.227 17.4141 14.3398 17.875 15.5001 17.875C16.6604 17.875 17.7732 17.4141 18.5937 16.5936C19.4141 15.7731 19.8751 14.6603 19.8751 13.5H27.1668Z" fill="#6C6E78"/>
</svg>
